<svg xmlns="http://www.w3.org/2000/svg" width="336" viewBox="0 0 336 384" height="384" version="1.0"><defs><clipPath id="a"><path d="M 58.746094 82 L 276.996094 82 L 276.996094 302 L 58.746094 302 Z M 58.746094 82"/></clipPath></defs><g clip-path="url(#a)"><path fill="#FFF" d="M 253.613281 82.742188 L 82.132812 82.742188 C 81.367188 82.742188 80.601562 82.78125 79.839844 82.855469 C 79.078125 82.929688 78.320312 83.042969 77.570312 83.191406 C 76.816406 83.34375 76.074219 83.527344 75.34375 83.75 C 74.609375 83.972656 73.890625 84.230469 73.183594 84.523438 C 72.476562 84.816406 71.785156 85.144531 71.109375 85.507812 C 70.433594 85.867188 69.777344 86.261719 69.140625 86.6875 C 68.503906 87.113281 67.886719 87.570312 67.296875 88.054688 C 66.703125 88.539062 66.136719 89.054688 65.597656 89.597656 C 65.054688 90.140625 64.542969 90.707031 64.054688 91.296875 C 63.570312 91.890625 63.113281 92.507812 62.6875 93.144531 C 62.261719 93.78125 61.871094 94.4375 61.507812 95.113281 C 61.148438 95.789062 60.820312 96.480469 60.527344 97.1875 C 60.234375 97.898438 59.976562 98.617188 59.753906 99.351562 C 59.53125 100.085938 59.347656 100.828125 59.195312 101.578125 C 59.046875 102.332031 58.933594 103.085938 58.859375 103.851562 C 58.785156 104.613281 58.746094 105.378906 58.746094 106.144531 L 58.746094 277.753906 C 58.746094 278.523438 58.785156 279.285156 58.859375 280.050781 C 58.933594 280.8125 59.046875 281.570312 59.195312 282.320312 C 59.347656 283.074219 59.53125 283.816406 59.753906 284.546875 C 59.976562 285.28125 60.234375 286.003906 60.527344 286.710938 C 60.820312 287.417969 61.148438 288.109375 61.507812 288.785156 C 61.871094 289.460938 62.261719 290.121094 62.6875 290.757812 C 63.113281 291.394531 63.570312 292.007812 64.054688 292.601562 C 64.542969 293.195312 65.054688 293.761719 65.597656 294.304688 C 66.136719 294.84375 66.703125 295.359375 67.296875 295.84375 C 67.886719 296.332031 68.503906 296.789062 69.140625 297.214844 C 69.777344 297.640625 70.433594 298.03125 71.109375 298.394531 C 71.785156 298.753906 72.476562 299.082031 73.183594 299.375 C 73.890625 299.667969 74.609375 299.925781 75.34375 300.148438 C 76.074219 300.371094 76.816406 300.558594 77.570312 300.707031 C 78.320312 300.855469 79.078125 300.96875 79.839844 301.042969 C 80.601562 301.121094 81.367188 301.15625 82.132812 301.15625 L 148.996094 301.15625 L 148.996094 226.902344 L 118.304688 226.902344 L 118.304688 191.949219 L 148.996094 191.949219 L 148.996094 165.3125 C 148.996094 135.011719 167.019531 118.273438 194.628906 118.273438 C 207.847656 118.273438 221.675781 120.632812 221.675781 120.632812 L 221.675781 150.375 L 206.441406 150.375 C 191.429688 150.375 186.75 159.695312 186.75 169.253906 L 186.75 191.949219 L 220.257812 191.949219 L 214.898438 226.902344 L 186.75 226.902344 L 186.75 301.15625 L 253.613281 301.15625 C 254.378906 301.15625 255.144531 301.121094 255.90625 301.042969 C 256.667969 300.96875 257.425781 300.855469 258.175781 300.707031 C 258.925781 300.558594 259.667969 300.371094 260.402344 300.148438 C 261.132812 299.925781 261.855469 299.667969 262.5625 299.375 C 263.269531 299.082031 263.960938 298.753906 264.636719 298.394531 C 265.3125 298.03125 265.96875 297.640625 266.605469 297.214844 C 267.242188 296.789062 267.855469 296.332031 268.449219 295.84375 C 269.039062 295.359375 269.605469 294.84375 270.148438 294.304688 C 270.691406 293.761719 271.203125 293.195312 271.6875 292.601562 C 272.175781 292.007812 272.632812 291.394531 273.054688 290.757812 C 273.480469 290.121094 273.875 289.460938 274.234375 288.785156 C 274.597656 288.109375 274.925781 287.417969 275.21875 286.710938 C 275.511719 286.003906 275.769531 285.28125 275.992188 284.546875 C 276.210938 283.816406 276.398438 283.074219 276.546875 282.320312 C 276.699219 281.570312 276.808594 280.8125 276.882812 280.050781 C 276.960938 279.285156 276.996094 278.523438 276.996094 277.753906 L 276.996094 106.144531 C 276.996094 105.378906 276.960938 104.613281 276.882812 103.851562 C 276.808594 103.085938 276.699219 102.332031 276.546875 101.578125 C 276.398438 100.828125 276.210938 100.085938 275.992188 99.351562 C 275.769531 98.617188 275.511719 97.898438 275.21875 97.1875 C 274.925781 96.480469 274.597656 95.789062 274.234375 95.113281 C 273.875 94.4375 273.480469 93.78125 273.054688 93.144531 C 272.632812 92.507812 272.175781 91.890625 271.6875 91.296875 C 271.203125 90.707031 270.691406 90.140625 270.148438 89.597656 C 269.605469 89.054688 269.039062 88.539062 268.449219 88.054688 C 267.855469 87.570312 267.242188 87.113281 266.605469 86.6875 C 265.96875 86.261719 265.3125 85.867188 264.636719 85.507812 C 263.960938 85.144531 263.269531 84.816406 262.5625 84.523438 C 261.855469 84.230469 261.132812 83.972656 260.402344 83.75 C 259.667969 83.527344 258.925781 83.34375 258.175781 83.191406 C 257.425781 83.042969 256.667969 82.929688 255.90625 82.855469 C 255.144531 82.78125 254.378906 82.742188 253.613281 82.742188 Z M 253.613281 82.742188"/></g></svg>