<svg xmlns="http://www.w3.org/2000/svg" width="336" viewBox="0 0 336 384" height="384" version="1.0"><defs><clipPath id="a"><path d="M 43.882812 67 L 292.132812 67 L 292.132812 316 L 43.882812 316 Z M 43.882812 67"/></clipPath></defs><g clip-path="url(#a)"><path fill="#FFF" d="M 265.53125 67.863281 L 70.480469 67.863281 C 55.796875 67.863281 43.882812 79.761719 43.882812 94.425781 L 43.882812 289.226562 C 43.882812 303.894531 55.796875 315.792969 70.480469 315.792969 L 265.53125 315.792969 C 280.21875 315.792969 292.132812 303.894531 292.132812 289.226562 L 292.132812 94.425781 C 292.132812 79.761719 280.21875 67.863281 265.53125 67.863281 Z M 197.542969 280.207031 C 192.886719 281.035156 191.167969 278.160156 191.167969 275.777344 C 191.167969 272.789062 191.28125 257.515625 191.28125 245.175781 C 191.28125 236.542969 188.398438 231.0625 185.019531 228.1875 C 205.519531 225.917969 227.132812 223.09375 227.132812 187.730469 C 227.132812 177.660156 223.53125 172.621094 217.65625 166.148438 C 218.597656 163.769531 221.757812 153.972656 216.714844 141.246094 C 209.011719 138.863281 191.390625 151.152344 191.390625 151.152344 C 184.074219 149.101562 176.152344 148.050781 168.339844 148.050781 C 160.527344 148.050781 152.601562 149.101562 145.285156 151.152344 C 145.285156 151.152344 127.664062 138.863281 119.964844 141.246094 C 114.921875 153.917969 118.023438 163.714844 119.019531 166.148438 C 113.148438 172.621094 110.375 177.660156 110.375 187.730469 C 110.375 222.929688 131.046875 225.917969 151.546875 228.1875 C 148.890625 230.566406 146.507812 234.660156 145.675781 240.527344 C 140.410156 242.90625 126.945312 247 118.910156 232.835938 C 113.867188 224.089844 104.78125 223.371094 104.78125 223.371094 C 95.804688 223.261719 104.171875 229.015625 104.171875 229.015625 C 110.15625 231.78125 114.367188 242.410156 114.367188 242.410156 C 119.742188 258.84375 145.453125 253.3125 145.453125 253.3125 C 145.453125 261.003906 145.5625 273.511719 145.5625 275.78125 C 145.5625 278.160156 143.902344 281.035156 139.191406 280.207031 C 102.617188 267.976562 77.019531 233.222656 77.019531 192.601562 C 77.019531 141.796875 115.917969 103.226562 166.789062 103.226562 C 217.65625 103.226562 258.882812 141.796875 258.882812 192.601562 C 258.9375 233.222656 234.113281 268.03125 197.542969 280.207031 Z M 143.179688 246.394531 C 142.128906 246.613281 141.132812 246.171875 141.019531 245.453125 C 140.910156 244.621094 141.628906 243.902344 142.683594 243.679688 C 143.734375 243.570312 144.734375 244.011719 144.84375 244.734375 C 145.011719 245.453125 144.289062 246.171875 143.179688 246.394531 Z M 137.917969 245.894531 C 137.917969 246.613281 137.085938 247.222656 135.976562 247.222656 C 134.757812 247.332031 133.925781 246.726562 133.925781 245.894531 C 133.925781 245.175781 134.757812 244.566406 135.867188 244.566406 C 136.917969 244.457031 137.917969 245.066406 137.917969 245.894531 Z M 130.324219 245.285156 C 130.105469 246.003906 128.996094 246.335938 128.054688 246.003906 C 127 245.785156 126.28125 244.953125 126.503906 244.234375 C 126.722656 243.515625 127.832031 243.183594 128.773438 243.40625 C 129.882812 243.738281 130.601562 244.566406 130.324219 245.285156 Z M 123.511719 242.296875 C 123.011719 242.90625 121.957031 242.796875 121.128906 241.964844 C 120.296875 241.246094 120.074219 240.195312 120.628906 239.695312 C 121.128906 239.089844 122.179688 239.199219 123.011719 240.027344 C 123.730469 240.75 124.007812 241.855469 123.511719 242.296875 Z M 118.46875 237.261719 C 117.96875 237.59375 117.027344 237.261719 116.417969 236.429688 C 115.808594 235.601562 115.808594 234.660156 116.417969 234.273438 C 117.027344 233.773438 117.96875 234.164062 118.46875 234.992188 C 119.078125 235.824219 119.078125 236.820312 118.46875 237.261719 Z M 114.867188 231.894531 C 114.367188 232.390625 113.535156 232.113281 112.925781 231.5625 C 112.316406 230.84375 112.207031 230.011719 112.703125 229.625 C 113.203125 229.125 114.035156 229.402344 114.644531 229.957031 C 115.253906 230.675781 115.363281 231.507812 114.867188 231.894531 Z M 111.152344 227.796875 C 110.929688 228.296875 110.210938 228.40625 109.601562 228.019531 C 108.878906 227.6875 108.546875 227.078125 108.769531 226.582031 C 108.992188 226.25 109.601562 226.082031 110.320312 226.359375 C 111.042969 226.746094 111.375 227.355469 111.152344 227.796875 Z M 111.152344 227.796875"/></g></svg>