<svg xmlns="http://www.w3.org/2000/svg" width="336" viewBox="0 0 336 384" height="384" version="1.0"><defs><clipPath id="a"><path d="M 54.511719 78 L 281.761719 78 L 281.761719 306 L 54.511719 306 Z M 54.511719 78"/></clipPath></defs><g clip-path="url(#a)"><path fill="#FFF" d="M 168.136719 164.960938 C 167.25 164.960938 166.367188 165.003906 165.484375 165.09375 C 164.605469 165.179688 163.730469 165.308594 162.859375 165.484375 C 161.992188 165.65625 161.132812 165.871094 160.285156 166.128906 C 159.4375 166.386719 158.601562 166.683594 157.785156 167.023438 C 156.964844 167.359375 156.167969 167.738281 155.386719 168.15625 C 154.605469 168.574219 153.84375 169.027344 153.109375 169.519531 C 152.371094 170.011719 151.660156 170.539062 150.976562 171.101562 C 150.292969 171.664062 149.636719 172.257812 149.007812 172.882812 C 148.382812 173.507812 147.789062 174.164062 147.226562 174.847656 C 146.664062 175.53125 146.136719 176.242188 145.644531 176.976562 C 145.152344 177.714844 144.699219 178.472656 144.28125 179.25 C 143.863281 180.03125 143.484375 180.832031 143.148438 181.648438 C 142.808594 182.464844 142.511719 183.300781 142.253906 184.144531 C 141.996094 184.992188 141.78125 185.851562 141.609375 186.71875 C 141.4375 187.585938 141.308594 188.460938 141.21875 189.339844 C 141.132812 190.222656 141.089844 191.105469 141.089844 191.988281 C 141.089844 192.875 141.132812 193.757812 141.222656 194.636719 C 141.308594 195.519531 141.4375 196.390625 141.609375 197.261719 C 141.785156 198.128906 142 198.984375 142.257812 199.832031 C 142.515625 200.679688 142.8125 201.511719 143.152344 202.328125 C 143.492188 203.144531 143.867188 203.945312 144.285156 204.722656 C 144.703125 205.503906 145.160156 206.261719 145.652344 206.996094 C 146.144531 207.734375 146.671875 208.441406 147.234375 209.128906 C 147.796875 209.8125 148.390625 210.464844 149.015625 211.089844 C 149.644531 211.71875 150.300781 212.3125 150.984375 212.871094 C 151.667969 213.433594 152.378906 213.960938 153.117188 214.449219 C 153.851562 214.941406 154.613281 215.398438 155.394531 215.8125 C 156.175781 216.230469 156.976562 216.609375 157.792969 216.949219 C 158.613281 217.285156 159.445312 217.582031 160.292969 217.839844 C 161.140625 218.097656 162 218.3125 162.871094 218.484375 C 163.738281 218.65625 164.613281 218.785156 165.496094 218.875 C 166.378906 218.960938 167.261719 219.003906 168.148438 219.003906 C 169.035156 219.003906 169.917969 218.960938 170.800781 218.875 C 171.683594 218.785156 172.558594 218.65625 173.425781 218.484375 C 174.296875 218.3125 175.152344 218.097656 176.003906 217.839844 C 176.851562 217.582031 177.683594 217.285156 178.503906 216.945312 C 179.320312 216.605469 180.121094 216.230469 180.902344 215.8125 C 181.683594 215.394531 182.441406 214.941406 183.179688 214.449219 C 183.917969 213.957031 184.628906 213.429688 185.3125 212.867188 C 185.996094 212.308594 186.652344 211.714844 187.28125 211.089844 C 187.90625 210.460938 188.5 209.808594 189.0625 209.125 C 189.625 208.4375 190.152344 207.730469 190.644531 206.992188 C 191.136719 206.257812 191.59375 205.5 192.011719 204.71875 C 192.425781 203.9375 192.804688 203.140625 193.144531 202.324219 C 193.484375 201.503906 193.78125 200.671875 194.039062 199.824219 C 194.296875 198.980469 194.511719 198.121094 194.683594 197.253906 C 194.859375 196.386719 194.988281 195.511719 195.074219 194.632812 C 195.160156 193.75 195.203125 192.867188 195.203125 191.984375 C 195.203125 191.097656 195.160156 190.214844 195.074219 189.335938 C 194.984375 188.453125 194.855469 187.578125 194.679688 186.710938 C 194.507812 185.84375 194.292969 184.984375 194.035156 184.140625 C 193.777344 183.292969 193.476562 182.460938 193.136719 181.644531 C 192.800781 180.824219 192.421875 180.027344 192.003906 179.246094 C 191.585938 178.464844 191.128906 177.707031 190.636719 176.972656 C 190.144531 176.238281 189.617188 175.527344 189.054688 174.84375 C 188.492188 174.160156 187.898438 173.503906 187.269531 172.878906 C 186.644531 172.253906 185.988281 171.660156 185.300781 171.097656 C 184.617188 170.535156 183.90625 170.011719 183.167969 169.519531 C 182.433594 169.027344 181.671875 168.570312 180.890625 168.15625 C 180.109375 167.738281 179.308594 167.359375 178.492188 167.019531 C 177.671875 166.683594 176.839844 166.382812 175.992188 166.128906 C 175.144531 165.871094 174.285156 165.65625 173.417969 165.484375 C 172.546875 165.308594 171.671875 165.179688 170.789062 165.09375 C 169.90625 165.003906 169.023438 164.960938 168.136719 164.960938 Z M 231.398438 144.191406 C 230.707031 142.449219 229.847656 140.792969 228.820312 139.226562 C 227.792969 137.660156 226.613281 136.214844 225.285156 134.890625 C 223.960938 133.566406 222.511719 132.386719 220.941406 131.359375 C 219.375 130.332031 217.71875 129.472656 215.972656 128.785156 C 205.320312 124.585938 179.957031 125.53125 168.136719 125.53125 C 156.320312 125.53125 130.980469 124.550781 120.296875 128.785156 C 118.554688 129.472656 116.894531 130.332031 115.328125 131.359375 C 113.757812 132.386719 112.308594 133.566406 110.984375 134.890625 C 109.65625 136.214844 108.480469 137.660156 107.449219 139.226562 C 106.421875 140.792969 105.5625 142.449219 104.871094 144.191406 C 100.671875 154.828125 101.609375 180.183594 101.609375 191.976562 C 101.609375 203.769531 100.671875 229.09375 104.894531 239.769531 C 105.582031 241.511719 106.441406 243.167969 107.46875 244.734375 C 108.5 246.300781 109.675781 247.746094 111.003906 249.070312 C 112.332031 250.394531 113.777344 251.570312 115.347656 252.601562 C 116.917969 253.628906 118.574219 254.484375 120.320312 255.171875 C 130.972656 259.375 156.332031 258.429688 168.15625 258.429688 C 179.980469 258.429688 205.308594 259.410156 215.992188 255.171875 C 217.738281 254.484375 219.394531 253.628906 220.964844 252.601562 C 222.53125 251.570312 223.980469 250.394531 225.304688 249.070312 C 226.632812 247.746094 227.8125 246.300781 228.839844 244.734375 C 229.871094 243.167969 230.730469 241.511719 231.417969 239.769531 C 235.652344 229.128906 234.679688 203.777344 234.679688 191.984375 C 234.679688 180.1875 235.652344 154.871094 231.417969 144.195312 Z M 168.136719 233.523438 C 166.773438 233.523438 165.417969 233.457031 164.058594 233.320312 C 162.703125 233.1875 161.359375 232.988281 160.023438 232.722656 C 158.6875 232.457031 157.367188 232.128906 156.0625 231.734375 C 154.757812 231.339844 153.476562 230.882812 152.21875 230.359375 C 150.960938 229.839844 149.730469 229.257812 148.53125 228.617188 C 147.328125 227.976562 146.160156 227.277344 145.027344 226.523438 C 143.894531 225.765625 142.804688 224.957031 141.75 224.09375 C 140.695312 223.230469 139.6875 222.316406 138.726562 221.355469 C 137.761719 220.394531 136.847656 219.386719 135.984375 218.335938 C 135.121094 217.285156 134.308594 216.191406 133.550781 215.0625 C 132.796875 213.929688 132.097656 212.765625 131.453125 211.5625 C 130.8125 210.363281 130.230469 209.136719 129.707031 207.878906 C 129.1875 206.621094 128.730469 205.34375 128.332031 204.039062 C 127.9375 202.738281 127.609375 201.421875 127.34375 200.085938 C 127.074219 198.753906 126.875 197.40625 126.742188 196.054688 C 126.609375 194.699219 126.542969 193.34375 126.542969 191.984375 C 126.542969 190.621094 126.609375 189.265625 126.742188 187.910156 C 126.875 186.558594 127.074219 185.214844 127.34375 183.878906 C 127.609375 182.542969 127.9375 181.226562 128.332031 179.925781 C 128.730469 178.621094 129.1875 177.34375 129.707031 176.085938 C 130.230469 174.828125 130.8125 173.601562 131.453125 172.402344 C 132.097656 171.199219 132.796875 170.035156 133.550781 168.90625 C 134.308594 167.773438 135.121094 166.683594 135.984375 165.628906 C 136.847656 164.578125 137.761719 163.570312 138.726562 162.609375 C 139.6875 161.648438 140.695312 160.734375 141.75 159.871094 C 142.804688 159.007812 143.894531 158.199219 145.027344 157.445312 C 146.160156 156.6875 147.328125 155.988281 148.53125 155.347656 C 149.730469 154.707031 150.960938 154.125 152.21875 153.605469 C 153.476562 153.085938 154.757812 152.625 156.0625 152.230469 C 157.367188 151.835938 158.6875 151.507812 160.023438 151.242188 C 161.359375 150.976562 162.703125 150.777344 164.058594 150.644531 C 165.417969 150.507812 166.773438 150.441406 168.136719 150.441406 C 169.5 150.441406 170.859375 150.507812 172.214844 150.644531 C 173.570312 150.777344 174.917969 150.976562 176.253906 151.242188 C 177.589844 151.507812 178.910156 151.835938 180.210938 152.230469 C 181.515625 152.625 182.796875 153.085938 184.054688 153.605469 C 185.3125 154.125 186.542969 154.707031 187.746094 155.347656 C 188.945312 155.988281 190.113281 156.6875 191.246094 157.445312 C 192.378906 158.199219 193.472656 159.007812 194.523438 159.871094 C 195.578125 160.734375 196.585938 161.648438 197.550781 162.609375 C 198.511719 163.570312 199.425781 164.578125 200.289062 165.628906 C 201.15625 166.683594 201.964844 167.773438 202.722656 168.90625 C 203.480469 170.035156 204.179688 171.199219 204.820312 172.402344 C 205.464844 173.601562 206.042969 174.828125 206.566406 176.085938 C 207.085938 177.34375 207.546875 178.621094 207.941406 179.925781 C 208.335938 181.226562 208.667969 182.542969 208.933594 183.878906 C 209.199219 185.214844 209.398438 186.558594 209.53125 187.910156 C 209.664062 189.265625 209.730469 190.621094 209.730469 191.984375 C 209.734375 193.34375 209.667969 194.703125 209.535156 196.054688 C 209.40625 197.410156 209.207031 198.753906 208.941406 200.089844 C 208.675781 201.425781 208.347656 202.742188 207.953125 204.046875 C 207.558594 205.347656 207.101562 206.628906 206.578125 207.886719 C 206.058594 209.144531 205.476562 210.375 204.835938 211.574219 C 204.195312 212.773438 203.496094 213.941406 202.738281 215.074219 C 201.980469 216.203125 201.171875 217.296875 200.304688 218.347656 C 199.441406 219.402344 198.527344 220.40625 197.566406 221.371094 C 196.601562 222.332031 195.59375 223.246094 194.539062 224.109375 C 193.484375 224.972656 192.390625 225.78125 191.257812 226.539062 C 190.125 227.292969 188.957031 227.992188 187.753906 228.632812 C 186.554688 229.273438 185.324219 229.855469 184.0625 230.375 C 182.804688 230.894531 181.523438 231.351562 180.21875 231.746094 C 178.914062 232.140625 177.59375 232.46875 176.253906 232.734375 C 174.917969 232.996094 173.574219 233.195312 172.214844 233.328125 C 170.859375 233.457031 169.5 233.523438 168.136719 233.523438 Z M 211.445312 158.394531 C 210.808594 158.398438 210.179688 158.335938 209.550781 158.210938 C 208.925781 158.085938 208.320312 157.902344 207.730469 157.660156 C 207.140625 157.417969 206.582031 157.117188 206.050781 156.765625 C 205.519531 156.410156 205.03125 156.007812 204.578125 155.558594 C 204.128906 155.109375 203.726562 154.621094 203.371094 154.089844 C 203.015625 153.5625 202.71875 153.003906 202.472656 152.414062 C 202.230469 151.828125 202.042969 151.21875 201.921875 150.59375 C 201.796875 149.972656 201.734375 149.339844 201.734375 148.703125 C 201.734375 148.066406 201.796875 147.4375 201.917969 146.8125 C 202.042969 146.1875 202.226562 145.582031 202.472656 144.992188 C 202.714844 144.402344 203.015625 143.84375 203.367188 143.316406 C 203.722656 142.785156 204.125 142.296875 204.574219 141.84375 C 205.027344 141.394531 205.515625 140.992188 206.046875 140.640625 C 206.578125 140.285156 207.136719 139.988281 207.726562 139.742188 C 208.316406 139.5 208.921875 139.316406 209.546875 139.191406 C 210.171875 139.066406 210.804688 139.003906 211.441406 139.003906 C 212.078125 139.003906 212.710938 139.066406 213.335938 139.191406 C 213.960938 139.316406 214.566406 139.5 215.15625 139.742188 C 215.746094 139.984375 216.304688 140.285156 216.835938 140.636719 C 217.367188 140.992188 217.855469 141.394531 218.308594 141.84375 C 218.757812 142.292969 219.160156 142.785156 219.515625 143.3125 C 219.867188 143.84375 220.167969 144.402344 220.410156 144.988281 C 220.65625 145.578125 220.839844 146.183594 220.964844 146.808594 C 221.089844 147.433594 221.152344 148.0625 221.152344 148.699219 C 221.152344 149.335938 221.09375 149.96875 220.972656 150.59375 C 220.847656 151.21875 220.667969 151.824219 220.425781 152.414062 C 220.183594 153.003906 219.886719 153.5625 219.53125 154.09375 C 219.179688 154.625 218.777344 155.113281 218.328125 155.566406 C 217.878906 156.019531 217.390625 156.421875 216.859375 156.777344 C 216.332031 157.128906 215.773438 157.429688 215.183594 157.675781 C 214.59375 157.917969 213.988281 158.105469 213.363281 158.230469 C 212.738281 158.355469 212.105469 158.417969 211.46875 158.417969 Z M 257.414062 78.507812 L 78.859375 78.507812 C 78.0625 78.507812 77.269531 78.546875 76.472656 78.625 C 75.679688 78.703125 74.894531 78.820312 74.109375 78.976562 C 73.328125 79.132812 72.554688 79.324219 71.792969 79.554688 C 71.03125 79.785156 70.28125 80.054688 69.542969 80.359375 C 68.804688 80.664062 68.085938 81.003906 67.382812 81.378906 C 66.679688 81.753906 65.996094 82.164062 65.332031 82.605469 C 64.671875 83.050781 64.03125 83.523438 63.414062 84.027344 C 62.796875 84.53125 62.207031 85.066406 61.644531 85.628906 C 61.082031 86.195312 60.546875 86.78125 60.039062 87.398438 C 59.535156 88.015625 59.058594 88.652344 58.617188 89.316406 C 58.171875 89.976562 57.761719 90.660156 57.386719 91.363281 C 57.011719 92.0625 56.671875 92.785156 56.367188 93.519531 C 56.0625 94.253906 55.792969 95.003906 55.5625 95.765625 C 55.328125 96.527344 55.136719 97.300781 54.980469 98.082031 C 54.824219 98.863281 54.707031 99.648438 54.628906 100.441406 C 54.550781 101.234375 54.511719 102.027344 54.511719 102.824219 L 54.511719 281.140625 C 54.511719 281.9375 54.550781 282.730469 54.628906 283.523438 C 54.707031 284.316406 54.824219 285.105469 54.980469 285.882812 C 55.136719 286.664062 55.328125 287.4375 55.5625 288.199219 C 55.792969 288.960938 56.0625 289.710938 56.367188 290.445312 C 56.671875 291.183594 57.011719 291.902344 57.386719 292.601562 C 57.761719 293.304688 58.171875 293.988281 58.617188 294.648438 C 59.058594 295.3125 59.535156 295.949219 60.039062 296.566406 C 60.546875 297.183594 61.082031 297.773438 61.644531 298.335938 C 62.207031 298.898438 62.796875 299.433594 63.414062 299.9375 C 64.03125 300.441406 64.671875 300.917969 65.332031 301.359375 C 65.996094 301.800781 66.679688 302.210938 67.382812 302.585938 C 68.085938 302.960938 68.804688 303.300781 69.542969 303.605469 C 70.28125 303.910156 71.03125 304.179688 71.792969 304.410156 C 72.554688 304.640625 73.328125 304.835938 74.109375 304.988281 C 74.894531 305.144531 75.679688 305.261719 76.472656 305.339844 C 77.269531 305.417969 78.0625 305.457031 78.859375 305.457031 L 257.414062 305.457031 C 258.210938 305.457031 259.007812 305.417969 259.800781 305.339844 C 260.59375 305.261719 261.382812 305.144531 262.164062 304.988281 C 262.945312 304.835938 263.71875 304.640625 264.480469 304.410156 C 265.246094 304.179688 265.996094 303.910156 266.730469 303.605469 C 267.46875 303.300781 268.1875 302.960938 268.890625 302.585938 C 269.59375 302.210938 270.277344 301.800781 270.941406 301.359375 C 271.605469 300.917969 272.246094 300.441406 272.859375 299.9375 C 273.476562 299.433594 274.066406 298.898438 274.632812 298.335938 C 275.195312 297.773438 275.730469 297.183594 276.234375 296.566406 C 276.742188 295.949219 277.214844 295.3125 277.660156 294.648438 C 278.101562 293.988281 278.511719 293.304688 278.886719 292.601562 C 279.261719 291.902344 279.605469 291.183594 279.910156 290.445312 C 280.214844 289.710938 280.484375 288.960938 280.714844 288.199219 C 280.945312 287.4375 281.140625 286.664062 281.292969 285.882812 C 281.449219 285.105469 281.566406 284.316406 281.644531 283.523438 C 281.722656 282.730469 281.761719 281.9375 281.761719 281.140625 L 281.761719 102.824219 C 281.761719 102.027344 281.722656 101.234375 281.644531 100.441406 C 281.566406 99.648438 281.449219 98.863281 281.292969 98.082031 C 281.140625 97.300781 280.945312 96.527344 280.714844 95.765625 C 280.484375 95.003906 280.214844 94.253906 279.910156 93.519531 C 279.605469 92.785156 279.261719 92.0625 278.886719 91.363281 C 278.511719 90.660156 278.101562 89.976562 277.660156 89.316406 C 277.214844 88.652344 276.742188 88.015625 276.234375 87.398438 C 275.730469 86.78125 275.195312 86.195312 274.632812 85.628906 C 274.066406 85.066406 273.476562 84.53125 272.859375 84.027344 C 272.246094 83.523438 271.605469 83.050781 270.941406 82.605469 C 270.277344 82.164062 269.59375 81.753906 268.890625 81.378906 C 268.1875 81.003906 267.46875 80.664062 266.730469 80.359375 C 265.996094 80.054688 265.246094 79.785156 264.480469 79.554688 C 263.71875 79.324219 262.945312 79.132812 262.164062 78.976562 C 261.382812 78.820312 260.59375 78.703125 259.800781 78.625 C 259.007812 78.546875 258.210938 78.507812 257.414062 78.507812 Z M 248.730469 225.417969 C 248.074219 238.402344 245.109375 249.90625 235.617188 259.359375 C 226.125 268.8125 214.617188 271.835938 201.632812 272.453125 C 188.234375 273.207031 148.070312 273.207031 134.675781 272.453125 C 121.671875 271.800781 110.195312 268.832031 100.6875 259.359375 C 91.183594 249.886719 88.195312 238.375 87.574219 225.417969 C 86.820312 212.03125 86.820312 171.917969 87.574219 158.546875 C 88.230469 145.566406 91.160156 134.058594 100.6875 124.605469 C 110.214844 115.15625 121.722656 112.164062 134.675781 111.546875 C 148.070312 110.792969 188.234375 110.792969 201.632812 111.546875 C 214.632812 112.203125 226.148438 115.167969 235.617188 124.644531 C 245.089844 134.117188 248.109375 145.625 248.730469 158.609375 C 249.484375 171.941406 249.484375 212.023438 248.730469 225.417969 Z M 248.730469 225.417969"/></g></svg>