<svg xmlns="http://www.w3.org/2000/svg" width="336" viewBox="0 0 336 384" height="384" version="1.0"><defs><clipPath id="a"><path d="M 41.839844 71 L 281.089844 71 L 281.089844 312 L 41.839844 312 Z M 41.839844 71"/></clipPath></defs><g clip-path="url(#a)"><path fill="#FFF" d="M 264 71.875 L 58.875 71.875 C 49.476562 71.875 41.839844 79.625 41.839844 89.136719 L 41.839844 294.019531 C 41.839844 303.535156 49.476562 311.28125 58.875 311.28125 L 264 311.28125 C 273.402344 311.28125 281.089844 303.535156 281.089844 294.019531 L 281.089844 89.136719 C 281.089844 79.625 273.402344 71.875 264 71.875 Z M 114.148438 277.082031 L 78.691406 277.082031 L 78.691406 162.828125 L 114.203125 162.828125 L 114.203125 277.082031 Z M 96.417969 147.222656 C 85.042969 147.222656 75.859375 137.980469 75.859375 126.648438 C 75.859375 115.320312 85.042969 106.074219 96.417969 106.074219 C 107.742188 106.074219 116.980469 115.320312 116.980469 126.648438 C 116.980469 138.03125 107.792969 147.222656 96.417969 147.222656 Z M 247.074219 277.082031 L 211.613281 277.082031 L 211.613281 221.503906 C 211.613281 208.25 211.34375 191.203125 193.1875 191.203125 C 174.710938 191.203125 171.878906 205.632812 171.878906 220.542969 L 171.878906 277.082031 L 136.417969 277.082031 L 136.417969 162.828125 L 170.4375 162.828125 L 170.4375 178.433594 L 170.917969 178.433594 C 175.671875 169.453125 187.261719 159.996094 204.507812 159.996094 C 240.398438 159.996094 247.074219 183.667969 247.074219 214.449219 Z M 247.074219 277.082031"/></g></svg>